<?xml version="1.0" ?><svg data-name="Layer 1" id="Layer_1" viewBox="0 0 64 64" xmlns="http://www.w3.org/2000/svg"><title/><desc/><path d="M55.06,3V5a2,2,0,0,1-2,2h-42a2,2,0,0,1-2-2V3a4,4,0,0,0,0,8h46a4,4,0,1,0,0-8Z" style="fill:#cff09e"/><rect height="2" style="fill:#95793c" transform="translate(-4.66 26.74) rotate(-29.99)" width="6.04" x="44.55" y="21.06"/><rect height="6.02" style="fill:#95793c" transform="translate(-4.91 13.88) rotate(-30)" width="2" x="22.44" y="13.08"/><rect height="6" style="fill:#95793c" width="2" x="31.06" y="11.02"/><rect height="2" style="fill:#95793c" transform="translate(6.4 43.28) rotate(-60.01)" width="6.02" x="37.67" y="15.09"/><rect height="2" style="fill:#95793c" width="6.04" x="10.16" y="30.02"/><rect height="6.04" style="fill:#95793c" transform="translate(-10.83 25.37) rotate(-60)" width="2" x="15.55" y="19.04"/><rect height="2" style="fill:#95793c" width="6.04" x="47.92" y="30.02"/><rect height="2" style="fill:#95793c" width="6" x="10.06" y="38.02"/><rect height="2" style="fill:#95793c" width="6" x="10.06" y="46.02"/><rect height="2" style="fill:#95793c" width="6" x="48.06" y="38.02"/><rect height="2" style="fill:#95793c" width="6" x="48.06" y="46.02"/><path d="M10.06,11V31H16.2A16,16,0,0,1,32.06,17h0A16,16,0,0,1,47.92,31h6.14V11Z" style="fill:#79bd9a"/><path d="M32.06,17h0a16,16,0,0,0-16,16V55h32V33A16,16,0,0,0,32.06,17Zm12,23a12,12,0,0,1-12,12h0a12,12,0,0,1-12-12V31a12,12,0,0,1,24,0Z" style="fill:#cff09e"/><path d="M37.06,27.1l-1,4.92-4-9-4,9-1-4.92a20.18,20.18,0,0,0-4,10.92,9,9,0,1,0,18,0A20.18,20.18,0,0,0,37.06,27.1Z" style="fill:#a8dba8"/><circle cx="28.06" cy="50.02" r="4" style="fill:#79bd9a"/><circle cx="36.06" cy="50.02" r="4" style="fill:#79bd9a"/><circle cx="32.06" cy="43.02" r="4" style="fill:#79bd9a"/><path d="M32.06,39a3.84,3.84,0,0,1,.83.09A8.91,8.91,0,0,1,32.06,33L30.75,34.2A8.9,8.9,0,0,0,28,42.4l.11.62A4,4,0,0,1,32.06,39Z" style="fill:#cff09e"/><path d="M6.41,55H5.06a2,2,0,0,0-2,2v2a2,2,0,0,0,2,2h54a2,2,0,0,0,2-2h-49A6,6,0,0,1,6.41,55Z" style="fill:#cff09e"/><circle cx="32.06" cy="43.02" r="2" style="fill:#a8dba8"/><circle cx="28.06" cy="50.02" r="2" style="fill:#a8dba8"/><circle cx="36.06" cy="50.02" r="2" style="fill:#a8dba8"/><path d="M32.06,11h0a22,22,0,0,0-22,22V55h6V33a16,16,0,0,1,16-16h0a16,16,0,0,1,16,16V55h6V33A22,22,0,0,0,32.06,11Z" style="fill:#a8dba8"/><path d="M59.06,54h-4V33c0-.56,0-1.12-.07-1.67a.88.88,0,0,0,.07-.33V12a5,5,0,0,0,0-10h-46a5,5,0,0,0,0,10V31a.88.88,0,0,0,.07.33c0,.55-.07,1.11-.07,1.67V54h-4a3,3,0,0,0-3,3v2a3,3,0,0,0,3,3h54a3,3,0,0,0,3-3V57A3,3,0,0,0,59.06,54Zm-31.27-7a9.88,9.88,0,0,0,2.3.77,3,3,0,0,1-2,5.2,2.82,2.82,0,0,1-1-.19,3,3,0,0,0,2-2.81,1,1,0,0,0-2,0,1,1,0,0,1-2,0A3,3,0,0,1,27.79,47.05Zm11.27,3a3,3,0,0,1-3,3,1,1,0,0,1,0-2,1,1,0,0,0,0-2,3,3,0,0,0-2.81,2,2.82,2.82,0,0,1-.19-1,3,3,0,0,1,1-2.2,9.88,9.88,0,0,0,2.3-.77A3,3,0,0,1,39.06,50Zm-7-4a3,3,0,0,1-3-3,2.78,2.78,0,0,1,.19-1,3,3,0,0,0,2.81,2,1,1,0,0,0,0-2,1,1,0,0,1,0-2,3,3,0,0,1,0,6ZM29,39.09a7.71,7.71,0,0,1,1.87-3.6,10.15,10.15,0,0,0,.51,2.6A4.92,4.92,0,0,0,29,39.09Zm7.84,5.33a4.89,4.89,0,0,0-3.24-6.13,7.92,7.92,0,0,1-.56-5,1,1,0,0,0-1.65-1l-1.31,1.18A9.81,9.81,0,0,0,27,42.58l.11.62h0a4.87,4.87,0,0,0,.21,1.22A8,8,0,0,1,24.06,38a18.62,18.62,0,0,1,2.5-8.36l.52,2.56A1,1,0,0,0,28,33a1,1,0,0,0,1-.59l3.08-6.94,3.09,6.94a1,1,0,0,0,1,.59,1,1,0,0,0,.87-.79l.52-2.56A18.62,18.62,0,0,1,40.06,38,8,8,0,0,1,36.84,44.42ZM32.06,53a5,5,0,0,0,1,1H31A5,5,0,0,0,32.06,53Zm9-3a5,5,0,0,0-2.58-4.35A10,10,0,0,0,42.06,38a21,21,0,0,0-4.21-11.54,1,1,0,0,0-1-.35,1,1,0,0,0-.75.77l-.38,1.85L33,22.61a1,1,0,0,0-.92-.59,1,1,0,0,0-.91.59l-2.73,6.14L28,26.9a1,1,0,0,0-.75-.77,1,1,0,0,0-1,.35A21,21,0,0,0,22.06,38a10,10,0,0,0,3.58,7.65A5,5,0,0,0,23.06,50a2.91,2.91,0,0,0,.06.6,5,5,0,0,0,2,3.4h-8V33a15,15,0,1,1,30,0V54H39A5,5,0,0,0,41.06,50ZM21.57,14.85l2,3.46a17.07,17.07,0,0,0-4.66,4l-3.49-2A21.25,21.25,0,0,1,21.57,14.85ZM48.7,20.26l-3.48,2a17.26,17.26,0,0,0-4.67-4l2-3.46A21.13,21.13,0,0,1,48.7,20.26ZM53.06,33v5h-4V33c0-.34,0-.67-.05-1h4C53,32.35,53.06,32.68,53.06,33Zm-4,7h4v6h-4Zm-.28-10a16.91,16.91,0,0,0-2.39-6.12l3.46-2a20.79,20.79,0,0,1,3,8.12Zm-10-12.62a17,17,0,0,0-5.71-1.33v-4a20.94,20.94,0,0,1,7.71,1.86Zm-7.71-5.33v4a16.92,16.92,0,0,0-5.7,1.33l-2-3.47A20.94,20.94,0,0,1,31.06,12.07ZM14.28,21.9l3.46,2A16.92,16.92,0,0,0,15.34,30h-4A21,21,0,0,1,14.28,21.9ZM11.06,33c0-.34,0-.67,0-1h4c0,.33,0,.66,0,1v5h-4Zm0,7h4v6h-4Zm38,8h4v6h-4Zm4-24.36a22.86,22.86,0,0,0-2-3.59,0,0,0,0,0,0,0l0,0a23.16,23.16,0,0,0-8.32-7.37l0,0h0c-.4-.21-.8-.41-1.22-.59H53.06ZM54.06,4V6h-44V4Zm-48,3a3,3,0,0,1,2-2.82V7a1,1,0,0,0,1,1h46a1,1,0,0,0,1-1V4.2a3,3,0,0,1-1,5.82h-46A3,3,0,0,1,6.06,7Zm5,5H22.7c-.41.18-.82.38-1.22.59h0l0,0A23.24,23.24,0,0,0,13.1,20l0,0s0,0,0,0a22.86,22.86,0,0,0-2,3.59Zm0,36h4v6h-4Zm49,11a1,1,0,0,1-1,1h-54a1,1,0,0,1-1-1V57a1,1,0,0,1,1-1h54a1,1,0,0,1,1,1Z" style="fill:#3b8686"/></svg>